<svg xmlns="http://www.w3.org/2000/svg" height="512px" viewBox="0 -960 960 960" width="512px" fill="#0070f3"><path d="M100.5-101.62q-26.5-27.62-26.5-67Q74-207 101.14-234q27.15-27 65.86-27 38.54 0 66.27 26.5Q261-208 261-168.5t-27.5 67Q206-74 166.5-74t-66-27.62ZM736-73q0-137.62-51.5-258.31T542.5-542Q452-632 331.63-683.5 211.25-735 74-735v-167q173 0 322 65t262.51 178.71q113.52 113.71 178 263Q901-246 901-73H736Zm-320 0q0-72-26.8-133.89Q362.4-268.79 316-316q-47-46-109-73T74-416v-165q106.63 0 198.31 39.5Q364-502 433-432.5t109 160.87Q582-180.26 582-73H416Z"/></svg>